ply
format ascii 1.0
comment Created by Blender 2.83.5 - www.blender.org, source file: ''
element vertex 69
property float x
property float y
property float z
property float nx
property float ny
property float nz
property float s
property float t
element face 44
property list uchar uint vertex_indices
end_header
1.000000 1.000000 0.000000 1.000000 -0.000000 0.000000 0.625000 0.125000
1.000000 0.000000 1.000000 1.000000 -0.000000 0.000000 0.500000 0.250000
1.000000 0.000000 0.000000 1.000000 -0.000000 0.000000 0.500000 0.125000
1.000000 1.000000 1.000000 1.000000 -0.000000 0.000000 0.625000 0.250000
1.000000 0.000000 6.098062 1.000000 -0.000000 0.000000 0.500000 0.250000
1.000000 1.000000 1.000000 -0.000000 1.000000 0.000000 0.875000 0.500000
0.000000 1.000000 0.000000 -0.000000 1.000000 0.000000 0.750000 0.625000
0.000000 1.000000 1.000000 -0.000000 1.000000 0.000000 0.750000 0.500000
1.000000 1.000000 1.000000 0.896157 0.407435 0.175784 0.875000 0.500000
0.000000 1.000000 6.098062 0.896157 0.407435 0.175784 0.750000 0.500000
0.000000 0.000000 8.415880 0.896157 0.407435 0.175784 0.875000 0.500000
0.000000 0.000000 0.000000 -0.000000 0.000000 -1.000000 0.000000 0.000000
1.000000 1.000000 0.000000 -0.000000 0.000000 -1.000000 0.625000 0.125000
1.000000 0.000000 0.000000 -0.000000 0.000000 -1.000000 0.500000 0.125000
1.000000 1.000000 1.000000 0.407435 0.896157 0.175784 0.625000 0.250000
0.000000 0.000000 8.415880 0.407435 0.896157 0.175784 0.625000 0.250000
1.000000 0.000000 6.098062 0.407435 0.896157 0.175784 0.500000 0.250000
1.000000 1.000000 0.000000 0.000000 1.000000 0.000000 0.875000 0.625000
0.000000 1.000000 6.098062 -0.000000 1.000000 0.000000 0.750000 0.500000
0.000000 1.000000 0.000000 -0.000000 -0.000000 -1.000000 0.750000 0.625000
-1.000000 1.000000 0.000000 -1.000000 0.000000 0.000000 0.625000 0.125000
-1.000000 0.000000 0.000000 -1.000000 0.000000 0.000000 0.500000 0.125000
-1.000000 0.000000 1.000000 -1.000000 0.000000 0.000000 0.500000 0.250000
-1.000000 1.000000 1.000000 -1.000000 0.000000 0.000000 0.625000 0.250000
-1.000000 0.000000 6.098062 -1.000000 0.000000 0.000000 0.500000 0.250000
-1.000000 1.000000 1.000000 0.000000 1.000000 -0.000000 0.875000 0.500000
-1.000000 1.000000 1.000000 -0.896157 0.407435 0.175784 0.875000 0.500000
0.000000 0.000000 8.415880 -0.896157 0.407435 0.175784 0.875000 0.500000
0.000000 1.000000 6.098062 -0.896157 0.407435 0.175784 0.750000 0.500000
-1.000000 0.000000 0.000000 0.000000 0.000000 -1.000000 0.500000 0.125000
-1.000000 1.000000 0.000000 0.000000 0.000000 -1.000000 0.625000 0.125000
-1.000000 1.000000 1.000000 -0.407435 0.896157 0.175784 0.625000 0.250000
-1.000000 0.000000 6.098062 -0.407435 0.896157 0.175784 0.500000 0.250000
0.000000 0.000000 8.415880 -0.407435 0.896157 0.175784 0.625000 0.250000
-1.000000 1.000000 0.000000 0.000000 1.000000 -0.000000 0.875000 0.625000
0.000000 0.000000 8.415880 1.000000 0.000000 -0.000000 0.625000 0.250000
0.000000 0.000000 6.098062 1.000000 0.000000 -0.000000 0.500000 0.375000
0.000000 1.000000 6.098062 1.000000 0.000000 -0.000000 0.625000 0.375000
1.000000 -1.000000 0.000000 1.000000 0.000000 0.000000 0.625000 0.125000
1.000000 -1.000000 1.000000 1.000000 0.000000 0.000000 0.625000 0.250000
1.000000 -1.000000 1.000000 0.000000 -1.000000 0.000000 0.875000 0.500000
0.000000 -1.000000 1.000000 0.000000 -1.000000 0.000000 0.750000 0.500000
0.000000 -1.000000 0.000000 0.000000 -1.000000 0.000000 0.750000 0.625000
0.000000 0.000000 8.415880 0.000000 1.000000 -0.000000 0.625000 0.250000
1.000000 0.000000 6.098062 0.000000 1.000000 -0.000000 0.500000 0.250000
0.000000 0.000000 6.098062 0.000000 1.000000 -0.000000 0.500000 0.375000
1.000000 -1.000000 1.000000 0.896157 -0.407435 0.175784 0.875000 0.500000
0.000000 0.000000 8.415880 0.896157 -0.407435 0.175784 0.875000 0.500000
0.000000 -1.000000 6.098062 0.896157 -0.407435 0.175784 0.750000 0.500000
1.000000 -1.000000 0.000000 0.000000 0.000000 -1.000000 0.625000 0.125000
1.000000 -1.000000 1.000000 0.407435 -0.896157 0.175784 0.625000 0.250000
1.000000 0.000000 6.098062 0.407435 -0.896157 0.175784 0.500000 0.250000
0.000000 0.000000 8.415880 0.407435 -0.896157 0.175784 0.625000 0.250000
1.000000 -1.000000 0.000000 0.000000 -1.000000 0.000000 0.875000 0.625000
0.000000 -1.000000 6.098062 0.000000 -1.000000 0.000000 0.750000 0.500000
0.000000 -1.000000 0.000000 0.000000 0.000000 -1.000000 0.750000 0.625000
-1.000000 -1.000000 0.000000 -1.000000 -0.000000 0.000000 0.625000 0.125000
-1.000000 -1.000000 1.000000 -1.000000 -0.000000 0.000000 0.625000 0.250000
-1.000000 -1.000000 1.000000 -0.000000 -1.000000 -0.000000 0.875000 0.500000
-1.000000 0.000000 6.098062 0.000000 1.000000 0.000000 0.500000 0.250000
-1.000000 -1.000000 1.000000 -0.896157 -0.407435 0.175784 0.875000 0.500000
0.000000 -1.000000 6.098062 -0.896157 -0.407435 0.175784 0.750000 0.500000
0.000000 0.000000 8.415880 -0.896157 -0.407435 0.175784 0.875000 0.500000
-1.000000 -1.000000 0.000000 0.000000 0.000000 -1.000000 0.625000 0.125000
-1.000000 -1.000000 1.000000 -0.407435 -0.896157 0.175784 0.625000 0.250000
0.000000 0.000000 8.415880 -0.407435 -0.896157 0.175784 0.625000 0.250000
-1.000000 0.000000 6.098062 -0.407435 -0.896157 0.175784 0.500000 0.250000
-1.000000 -1.000000 0.000000 0.000000 -1.000000 0.000000 0.875000 0.625000
0.000000 -1.000000 6.098062 1.000000 0.000000 -0.000000 0.625000 0.375000
3 0 1 2
3 3 4 1
3 5 6 7
3 8 9 10
3 11 12 13
3 0 3 1
3 14 15 16
3 5 17 6
3 5 7 18
3 11 19 12
3 20 21 22
3 23 22 24
3 25 7 6
3 26 27 28
3 11 29 30
3 20 22 23
3 31 32 33
3 25 6 34
3 35 36 37
3 25 18 7
3 11 30 19
3 38 2 1
3 39 1 4
3 40 41 42
3 43 44 45
3 46 47 48
3 11 13 49
3 38 1 39
3 50 51 52
3 40 42 53
3 40 54 41
3 11 49 55
3 56 22 21
3 57 24 22
3 58 42 41
3 43 45 59
3 60 61 62
3 11 63 29
3 56 57 22
3 64 65 66
3 58 67 42
3 35 68 36
3 58 41 54
3 11 55 63
