ply
format ascii 1.0
comment Created by Blender 2.83.5 - www.blender.org, source file: ''
element vertex 231
property float x
property float y
property float z
property float nx
property float ny
property float nz
property float s
property float t
element face 116
property list uchar uint vertex_indices
end_header
0.055201 0.055201 -0.055201 1.000000 -0.000000 0.000000 0.625000 0.000000
0.055201 0.000000 0.055201 1.000000 -0.000000 0.000000 0.500000 0.250000
0.055201 0.000000 -0.055201 1.000000 -0.000000 0.000000 0.500000 0.000000
0.055201 0.055201 0.055201 0.000000 -0.000000 1.000000 0.625000 0.250000
-0.055201 0.000000 0.055201 0.000000 -0.000000 1.000000 0.500000 0.500000
0.055201 0.000000 0.055201 0.000000 -0.000000 1.000000 0.500000 0.250000
-0.055201 0.055201 0.055201 -1.000000 0.000000 0.000000 0.625000 0.500000
-0.055201 0.000000 -0.055201 -1.000000 0.000000 0.000000 0.500000 0.750000
-0.055201 0.000000 0.055201 -1.000000 0.000000 0.000000 0.500000 0.500000
-0.055201 0.055201 -0.055201 0.000000 0.000000 -1.000000 0.625000 0.750000
0.055201 0.000000 -0.055201 0.000000 0.000000 -1.000000 0.500000 1.000000
-0.055201 0.000000 -0.055201 0.000000 0.000000 -1.000000 0.500000 0.750000
0.055201 0.055201 0.055201 1.000000 0.000000 0.000000 0.625000 0.250000
0.055201 0.153378 -0.066398 1.000000 0.000000 0.000000 0.625000 0.000000
0.055201 0.204080 0.031673 1.000000 0.000000 0.000000 0.625000 0.250000
-0.055201 0.204080 0.031673 -1.000000 0.000000 0.000000 0.625000 0.500000
-0.055201 0.290499 -0.162609 -1.000000 0.000000 0.000000 0.625000 0.750000
-0.055201 0.153378 -0.066398 -1.000000 0.000000 0.000000 0.625000 0.750000
-0.055201 0.055201 -0.055201 0.000000 -0.113316 -0.993559 0.625000 0.750000
0.055201 0.153378 -0.066398 0.000000 -0.113316 -0.993559 0.625000 1.000000
0.055201 0.055201 -0.055201 0.000000 -0.113316 -0.993559 0.625000 1.000000
0.055201 0.055201 0.055201 0.000000 0.156099 0.987741 0.625000 0.250000
-0.055201 0.204080 0.031673 0.000000 0.156099 0.987741 0.625000 0.500000
-0.055201 0.055201 0.055201 0.000000 0.156099 0.987741 0.625000 0.500000
-0.055201 0.055201 -0.055201 -1.000000 0.000000 0.000000 0.625000 0.750000
-0.055201 0.379736 -0.097606 -1.000000 0.000000 0.000000 0.625000 0.500000
-0.055201 0.387320 -0.246992 -1.000000 0.000000 0.000000 0.625000 0.750000
0.055201 0.290499 -0.162609 1.000000 0.000000 0.000000 0.625000 0.000000
0.055201 0.379736 -0.097606 1.000000 0.000000 0.000000 0.625000 0.250000
-0.055201 0.153378 -0.066398 0.000000 -0.574368 -0.818598 0.625000 0.750000
0.055201 0.290499 -0.162609 0.000000 -0.574368 -0.818598 0.625000 1.000000
0.055201 0.153378 -0.066398 0.000000 -0.574368 -0.818598 0.625000 1.000000
0.055201 0.204080 0.031673 0.000000 0.592747 0.805389 0.625000 0.250000
-0.055201 0.379736 -0.097606 0.000000 0.592747 0.805389 0.625000 0.500000
-0.055201 0.204080 0.031673 0.000000 0.592747 0.805389 0.625000 0.500000
0.006247 0.381370 -0.320023 0.999997 -0.000001 0.002296 0.625000 0.000000
0.006275 0.000000 -0.332213 0.999997 -0.000001 0.002296 0.875000 0.750000
0.006275 0.383649 -0.332100 0.999997 -0.000001 0.002296 0.875000 0.750000
0.055201 0.387320 -0.246992 1.000000 0.000000 0.000000 0.625000 0.000000
0.055201 0.497664 -0.243405 1.000000 0.000000 0.000000 0.625000 0.250000
-0.055201 0.290499 -0.162609 0.000000 -0.657022 -0.753871 0.625000 0.750000
0.055201 0.387320 -0.246992 0.000000 -0.657022 -0.753871 0.625000 1.000000
0.055201 0.290499 -0.162609 0.000000 -0.657022 -0.753871 0.625000 1.000000
0.055201 0.379736 -0.097606 0.000000 0.777505 0.628877 0.625000 0.250000
-0.055201 0.497664 -0.243405 0.000000 0.777505 0.628877 0.625000 0.500000
-0.055201 0.379736 -0.097606 0.000000 0.777505 0.628877 0.625000 0.500000
-0.055451 0.499497 -0.404646 -0.004169 0.000751 -0.999991 0.625000 0.500000
0.055451 0.389599 -0.405191 -0.004169 0.000751 -0.999991 0.875000 0.750000
-0.054949 0.389096 -0.404731 -0.004169 0.000751 -0.999991 0.625000 0.750000
0.055201 0.497664 -0.243405 0.000000 0.999935 0.011368 0.625000 0.250000
-0.055451 0.499497 -0.404646 0.000000 0.999935 0.011368 0.625000 0.500000
-0.055201 0.497664 -0.243405 0.000000 0.999935 0.011368 0.625000 0.500000
-0.055201 0.387320 -0.246992 -0.999988 -0.004547 -0.001649 0.625000 0.750000
-0.055451 0.499497 -0.404646 -0.999988 -0.004547 -0.001649 0.625000 0.500000
-0.054949 0.389096 -0.404731 -0.999988 -0.004547 -0.001649 0.625000 0.750000
0.055201 0.387320 -0.246992 0.000000 -0.996698 0.081201 0.625000 1.000000
-0.005997 0.381370 -0.320023 0.000000 -0.996698 0.081201 0.625000 0.750000
0.006247 0.381370 -0.320023 0.000000 -0.996698 0.081201 0.625000 1.000000
-0.054949 0.389096 -0.404731 0.040450 -0.993263 -0.108593 0.625000 0.750000
0.006275 0.383649 -0.332100 0.040450 -0.993263 -0.108593 0.875000 0.750000
-0.005969 0.383146 -0.332065 0.040450 -0.993263 -0.108593 0.625000 0.750000
0.055201 0.387320 -0.246992 0.999999 0.000051 -0.001558 0.625000 0.000000
0.054949 0.500000 -0.405106 0.999999 0.000051 -0.001558 0.625000 0.250000
0.055201 0.497664 -0.243405 0.999999 0.000051 -0.001558 0.625000 0.250000
-0.055201 0.387320 -0.246992 -0.319612 -0.937302 -0.138972 0.625000 0.750000
-0.005969 0.383146 -0.332065 -0.319612 -0.937302 -0.138972 0.625000 0.750000
-0.005997 0.381370 -0.320023 -0.319612 -0.937302 -0.138972 0.625000 0.750000
0.055201 0.387320 -0.246992 0.099316 -0.994955 -0.014173 0.625000 0.000000
0.006275 0.383649 -0.332100 0.099316 -0.994955 -0.014173 0.875000 0.750000
0.055451 0.389599 -0.405191 0.099316 -0.994955 -0.014173 0.875000 0.750000
-0.005997 0.381370 -0.320023 0.000000 0.000115 1.000000 0.625000 0.750000
0.006247 0.000000 -0.319979 0.000000 0.000115 1.000000 0.625000 1.000000
0.006247 0.381370 -0.320023 0.000000 0.000115 1.000000 0.625000 1.000000
-0.005969 0.383146 -0.332065 -0.014184 -0.000067 -0.999899 0.625000 0.750000
0.006275 0.000000 -0.332213 -0.014184 -0.000067 -0.999899 0.875000 0.750000
-0.005969 0.000000 -0.332040 -0.014184 -0.000067 -0.999899 0.625000 0.750000
-0.005997 0.381370 -0.320023 -0.999997 -0.000000 -0.002318 0.625000 0.750000
-0.005969 0.000000 -0.332040 -0.999997 -0.000000 -0.002318 0.625000 0.750000
-0.005997 0.000000 -0.319979 -0.999997 -0.000000 -0.002318 0.625000 0.750000
-0.055201 0.055201 0.055201 0.000000 0.000000 1.000000 0.625000 0.500000
0.055201 0.055201 -0.055201 0.000000 0.000000 -1.000000 0.625000 1.000000
-0.055201 0.153378 -0.066398 -0.000000 -0.113316 -0.993559 0.625000 0.750000
0.055201 0.204080 0.031673 -0.000000 0.156099 0.987741 0.625000 0.250000
-0.055201 0.497664 -0.243405 -1.000000 0.000000 0.000000 0.625000 0.500000
-0.055201 0.290499 -0.162609 -0.000000 -0.574368 -0.818598 0.625000 0.750000
0.055201 0.379736 -0.097606 -0.000000 0.592747 0.805389 0.625000 0.250000
0.006247 0.381370 -0.320023 0.999997 0.000000 0.002266 0.625000 0.000000
0.006247 0.000000 -0.319979 0.999997 0.000000 0.002266 0.625000 0.000000
0.006275 0.000000 -0.332213 0.999997 0.000000 0.002266 0.875000 0.750000
-0.055201 0.387320 -0.246992 -0.000000 -0.657022 -0.753871 0.625000 0.750000
0.055201 0.497664 -0.243405 -0.000000 0.777505 0.628877 0.625000 0.250000
0.054949 0.500000 -0.405106 -0.004169 0.000751 -0.999991 0.875000 0.500000
0.055201 0.497664 -0.243405 -0.004491 0.999885 0.014449 0.625000 0.250000
0.054949 0.500000 -0.405106 -0.004491 0.999885 0.014449 0.625000 0.250000
-0.055451 0.499497 -0.404646 -0.004491 0.999885 0.014449 0.625000 0.500000
-0.055201 0.387320 -0.246992 -0.999999 -0.000050 0.001550 0.625000 0.750000
-0.055201 0.497664 -0.243405 -0.999999 -0.000050 0.001550 0.625000 0.500000
-0.055451 0.499497 -0.404646 -0.999999 -0.000050 0.001550 0.625000 0.500000
-0.055201 0.387320 -0.246992 0.000000 -0.996698 0.081201 0.625000 0.750000
-0.054949 0.389096 -0.404731 0.004211 -0.996919 -0.078320 0.625000 0.750000
0.055451 0.389599 -0.405191 0.004211 -0.996919 -0.078320 0.875000 0.750000
0.006275 0.383649 -0.332100 0.004211 -0.996919 -0.078320 0.875000 0.750000
0.055201 0.387320 -0.246992 0.999988 0.004547 0.001646 0.625000 0.000000
0.055451 0.389599 -0.405191 0.999988 0.004547 0.001646 0.875000 0.750000
0.054949 0.500000 -0.405106 0.999988 0.004547 0.001646 0.625000 0.250000
-0.055201 0.387320 -0.246992 -0.103952 -0.994517 -0.011363 0.625000 0.750000
-0.054949 0.389096 -0.404731 -0.103952 -0.994517 -0.011363 0.625000 0.750000
-0.005969 0.383146 -0.332065 -0.103952 -0.994517 -0.011363 0.625000 0.750000
0.055201 0.387320 -0.246992 0.367143 -0.914195 -0.171622 0.625000 0.000000
0.006247 0.381370 -0.320023 0.367143 -0.914195 -0.171622 0.625000 0.000000
0.006275 0.383649 -0.332100 0.367143 -0.914195 -0.171622 0.875000 0.750000
-0.005997 0.000000 -0.319979 0.000000 0.000115 1.000000 0.625000 0.750000
-0.005969 0.383146 -0.332065 -0.002879 0.000294 -0.999996 0.625000 0.750000
0.006275 0.383649 -0.332100 -0.002879 0.000294 -0.999996 0.875000 0.750000
0.006275 0.000000 -0.332213 -0.002879 0.000294 -0.999996 0.875000 0.750000
-0.005997 0.381370 -0.320023 -0.999997 -0.000000 -0.002322 0.625000 0.750000
-0.005969 0.383146 -0.332065 -0.999997 -0.000000 -0.002322 0.625000 0.750000
-0.005969 0.000000 -0.332040 -0.999997 -0.000000 -0.002322 0.625000 0.750000
0.055201 -0.055201 -0.055201 1.000000 0.000000 0.000000 0.625000 0.000000
0.055201 -0.055201 0.055201 -0.000000 0.000000 1.000000 0.625000 0.250000
-0.055201 -0.055201 0.055201 -1.000000 0.000000 0.000000 0.625000 0.500000
-0.055201 -0.055201 -0.055201 -0.000000 -0.000000 -1.000000 0.625000 0.750000
0.055201 -0.055201 0.055201 1.000000 0.000000 -0.000000 0.625000 0.250000
0.055201 -0.204080 0.031673 1.000000 0.000000 -0.000000 0.625000 0.250000
0.055201 -0.153378 -0.066398 1.000000 0.000000 -0.000000 0.625000 0.000000
-0.055201 -0.204080 0.031673 -1.000000 0.000000 0.000000 0.625000 0.500000
-0.055201 -0.153378 -0.066398 -1.000000 0.000000 0.000000 0.625000 0.750000
-0.055201 -0.290499 -0.162609 -1.000000 0.000000 0.000000 0.625000 0.750000
-0.055201 -0.055201 -0.055201 0.000000 0.113316 -0.993559 0.625000 0.750000
0.055201 -0.055201 -0.055201 0.000000 0.113316 -0.993559 0.625000 1.000000
0.055201 -0.153378 -0.066398 0.000000 0.113316 -0.993559 0.625000 1.000000
0.055201 -0.055201 0.055201 0.000000 -0.156099 0.987741 0.625000 0.250000
-0.055201 -0.055201 0.055201 0.000000 -0.156099 0.987741 0.625000 0.500000
-0.055201 -0.204080 0.031673 0.000000 -0.156099 0.987741 0.625000 0.500000
-0.055201 -0.055201 -0.055201 -1.000000 0.000000 0.000000 0.625000 0.750000
0.055201 0.000000 -0.055201 -0.000000 1.000000 0.000000 0.500000 0.000000
-0.055201 0.000000 -0.055201 -0.000000 1.000000 0.000000 0.500000 0.750000
-0.055201 0.000000 0.055201 -0.000000 1.000000 0.000000 0.500000 0.500000
-0.055201 -0.379736 -0.097606 -1.000000 0.000000 0.000000 0.625000 0.500000
-0.055201 -0.387320 -0.246992 -1.000000 0.000000 0.000000 0.625000 0.750000
0.055201 -0.379736 -0.097606 1.000000 0.000000 -0.000000 0.625000 0.250000
0.055201 -0.290499 -0.162609 1.000000 0.000000 -0.000000 0.625000 0.000000
-0.055201 -0.153378 -0.066398 0.000000 0.574368 -0.818598 0.625000 0.750000
0.055201 -0.153378 -0.066398 0.000000 0.574368 -0.818598 0.625000 1.000000
0.055201 -0.290499 -0.162609 0.000000 0.574368 -0.818598 0.625000 1.000000
0.055201 -0.204080 0.031673 0.000000 -0.592747 0.805389 0.625000 0.250000
-0.055201 -0.204080 0.031673 0.000000 -0.592747 0.805389 0.625000 0.500000
-0.055201 -0.379736 -0.097606 0.000000 -0.592747 0.805389 0.625000 0.500000
0.006247 -0.381370 -0.320023 0.999997 0.000001 0.002296 0.625000 0.000000
0.006275 -0.383649 -0.332100 0.999997 0.000001 0.002296 0.875000 0.750000
0.006275 0.000000 -0.332213 0.999997 0.000001 0.002296 0.875000 0.750000
0.055201 -0.497664 -0.243405 1.000000 0.000000 -0.000000 0.625000 0.250000
0.055201 -0.387320 -0.246992 1.000000 0.000000 -0.000000 0.625000 0.000000
-0.055201 -0.290499 -0.162609 0.000000 0.657022 -0.753871 0.625000 0.750000
0.055201 -0.290499 -0.162609 0.000000 0.657022 -0.753871 0.625000 1.000000
0.055201 -0.387320 -0.246992 0.000000 0.657022 -0.753871 0.625000 1.000000
0.055201 -0.379736 -0.097606 0.000000 -0.777505 0.628877 0.625000 0.250000
-0.055201 -0.379736 -0.097606 0.000000 -0.777505 0.628877 0.625000 0.500000
-0.055201 -0.497664 -0.243405 0.000000 -0.777505 0.628877 0.625000 0.500000
-0.055451 -0.499497 -0.404646 -0.004169 -0.000751 -0.999991 0.625000 0.500000
-0.054949 -0.389096 -0.404731 -0.004169 -0.000751 -0.999991 0.625000 0.750000
0.055451 -0.389599 -0.405191 -0.004169 -0.000751 -0.999991 0.875000 0.750000
0.055201 -0.497664 -0.243405 0.000000 -0.999935 0.011368 0.625000 0.250000
-0.055201 -0.497664 -0.243405 0.000000 -0.999935 0.011368 0.625000 0.500000
-0.055451 -0.499497 -0.404646 0.000000 -0.999935 0.011368 0.625000 0.500000
-0.055201 -0.387320 -0.246992 -0.999988 0.004547 -0.001649 0.625000 0.750000
-0.054949 -0.389096 -0.404731 -0.999988 0.004547 -0.001649 0.625000 0.750000
-0.055451 -0.499497 -0.404646 -0.999988 0.004547 -0.001649 0.625000 0.500000
0.055201 -0.387320 -0.246992 -0.000000 0.996698 0.081201 0.625000 1.000000
0.006247 -0.381370 -0.320023 -0.000000 0.996698 0.081201 0.625000 1.000000
-0.005997 -0.381370 -0.320023 -0.000000 0.996698 0.081201 0.625000 0.750000
-0.054949 -0.389096 -0.404731 0.040450 0.993263 -0.108593 0.625000 0.750000
-0.005969 -0.383146 -0.332065 0.040450 0.993263 -0.108593 0.625000 0.750000
0.006275 -0.383649 -0.332100 0.040450 0.993263 -0.108593 0.875000 0.750000
0.055201 -0.387320 -0.246992 0.999999 -0.000051 -0.001558 0.625000 0.000000
0.055201 -0.497664 -0.243405 0.999999 -0.000051 -0.001558 0.625000 0.250000
0.054949 -0.500000 -0.405106 0.999999 -0.000051 -0.001558 0.625000 0.250000
-0.055201 -0.387320 -0.246992 -0.319612 0.937302 -0.138972 0.625000 0.750000
-0.005997 -0.381370 -0.320023 -0.319612 0.937302 -0.138972 0.625000 0.750000
-0.005969 -0.383146 -0.332065 -0.319612 0.937302 -0.138972 0.625000 0.750000
0.055201 -0.387320 -0.246992 0.099316 0.994955 -0.014173 0.625000 0.000000
0.055451 -0.389599 -0.405191 0.099316 0.994955 -0.014173 0.875000 0.750000
0.006275 -0.383649 -0.332100 0.099316 0.994955 -0.014173 0.875000 0.750000
0.006247 0.000000 -0.319979 -0.000000 1.000000 -0.000000 0.625000 0.000000
0.006275 0.000000 -0.332213 -0.000000 1.000000 -0.000000 0.875000 0.750000
-0.005969 0.000000 -0.332040 -0.000000 1.000000 -0.000000 0.625000 0.750000
-0.005997 -0.381370 -0.320023 0.000000 -0.000115 1.000000 0.625000 0.750000
0.006247 -0.381370 -0.320023 0.000000 -0.000115 1.000000 0.625000 1.000000
0.006247 0.000000 -0.319979 0.000000 -0.000115 1.000000 0.625000 1.000000
-0.005969 -0.383146 -0.332065 -0.014184 0.000067 -0.999899 0.625000 0.750000
-0.005969 0.000000 -0.332040 -0.014184 0.000067 -0.999899 0.625000 0.750000
0.006275 0.000000 -0.332213 -0.014184 0.000067 -0.999899 0.875000 0.750000
-0.005997 -0.381370 -0.320023 -0.999997 0.000000 -0.002318 0.625000 0.750000
-0.055201 -0.055201 0.055201 -0.000000 0.000000 1.000000 0.625000 0.500000
0.055201 -0.055201 -0.055201 -0.000000 0.000000 -1.000000 0.625000 1.000000
-0.055201 -0.153378 -0.066398 0.000000 0.113316 -0.993559 0.625000 0.750000
0.055201 -0.204080 0.031673 0.000000 -0.156099 0.987741 0.625000 0.250000
0.055201 0.000000 0.055201 0.000000 1.000000 0.000000 0.500000 0.250000
-0.055201 -0.497664 -0.243405 -1.000000 0.000000 0.000000 0.625000 0.500000
-0.055201 -0.290499 -0.162609 0.000000 0.574368 -0.818598 0.625000 0.750000
0.055201 -0.379736 -0.097606 0.000000 -0.592747 0.805389 0.625000 0.250000
0.006247 -0.381370 -0.320023 0.999997 -0.000000 0.002266 0.625000 0.000000
-0.055201 -0.387320 -0.246992 0.000000 0.657022 -0.753871 0.625000 0.750000
0.055201 -0.497664 -0.243405 0.000000 -0.777505 0.628877 0.625000 0.250000
0.054949 -0.500000 -0.405106 -0.004169 -0.000751 -0.999991 0.875000 0.500000
0.055201 -0.497664 -0.243405 -0.004491 -0.999885 0.014449 0.625000 0.250000
-0.055451 -0.499497 -0.404646 -0.004491 -0.999885 0.014449 0.625000 0.500000
0.054949 -0.500000 -0.405106 -0.004491 -0.999885 0.014449 0.625000 0.250000
-0.055201 -0.387320 -0.246992 -0.999999 0.000050 0.001550 0.625000 0.750000
-0.055451 -0.499497 -0.404646 -0.999999 0.000050 0.001550 0.625000 0.500000
-0.055201 -0.497664 -0.243405 -0.999999 0.000050 0.001550 0.625000 0.500000
-0.055201 -0.387320 -0.246992 0.000000 0.996698 0.081201 0.625000 0.750000
-0.054949 -0.389096 -0.404731 0.004211 0.996919 -0.078320 0.625000 0.750000
0.006275 -0.383649 -0.332100 0.004211 0.996919 -0.078320 0.875000 0.750000
0.055451 -0.389599 -0.405191 0.004211 0.996919 -0.078320 0.875000 0.750000
0.055201 -0.387320 -0.246992 0.999988 -0.004547 0.001646 0.625000 0.000000
0.054949 -0.500000 -0.405106 0.999988 -0.004547 0.001646 0.625000 0.250000
0.055451 -0.389599 -0.405191 0.999988 -0.004547 0.001646 0.875000 0.750000
-0.055201 -0.387320 -0.246992 -0.103952 0.994517 -0.011363 0.625000 0.750000
-0.005969 -0.383146 -0.332065 -0.103952 0.994517 -0.011363 0.625000 0.750000
-0.054949 -0.389096 -0.404731 -0.103952 0.994517 -0.011363 0.625000 0.750000
0.055201 -0.387320 -0.246992 0.367143 0.914195 -0.171622 0.625000 0.000000
0.006275 -0.383649 -0.332100 0.367143 0.914195 -0.171622 0.875000 0.750000
0.006247 -0.381370 -0.320023 0.367143 0.914195 -0.171622 0.625000 0.000000
-0.005997 0.000000 -0.319979 -0.000000 1.000000 0.000000 0.625000 0.750000
-0.005997 0.000000 -0.319979 0.000000 -0.000115 1.000000 0.625000 0.750000
-0.005969 -0.383146 -0.332065 -0.002879 -0.000294 -0.999996 0.625000 0.750000
0.006275 0.000000 -0.332213 -0.002879 -0.000294 -0.999996 0.875000 0.750000
0.006275 -0.383649 -0.332100 -0.002879 -0.000294 -0.999996 0.875000 0.750000
-0.005997 -0.381370 -0.320023 -0.999997 0.000000 -0.002322 0.625000 0.750000
-0.005969 -0.383146 -0.332065 -0.999997 0.000000 -0.002322 0.625000 0.750000
3 0 1 2
3 3 4 5
3 6 7 8
3 9 10 11
3 12 13 14
3 15 16 17
3 18 19 20
3 21 22 23
3 6 17 24
3 25 26 16
3 14 27 28
3 29 30 31
3 32 33 34
3 35 36 37
3 28 38 39
3 40 41 42
3 43 44 45
3 46 47 48
3 49 50 51
3 52 53 54
3 55 56 57
3 58 59 60
3 61 62 63
3 64 65 66
3 67 68 69
3 70 71 72
3 73 74 75
3 76 77 78
3 0 12 1
3 3 79 4
3 6 24 7
3 9 80 10
3 12 0 13
3 15 25 16
3 18 81 19
3 21 82 22
3 6 15 17
3 25 83 26
3 14 13 27
3 29 84 30
3 32 85 33
3 86 87 88
3 28 27 38
3 40 89 41
3 43 90 44
3 46 91 47
3 92 93 94
3 95 96 97
3 55 98 56
3 99 100 101
3 102 103 104
3 105 106 107
3 108 109 110
3 70 111 71
3 112 113 114
3 115 116 117
3 118 2 1
3 119 5 4
3 120 8 7
3 121 11 10
3 122 123 124
3 125 126 127
3 128 129 130
3 131 132 133
3 120 134 126
3 135 136 137
3 138 127 139
3 123 140 141
3 142 143 144
3 145 146 147
3 148 149 150
3 140 151 152
3 153 154 155
3 156 157 158
3 159 160 161
3 162 163 164
3 165 166 167
3 168 169 170
3 171 172 173
3 174 175 176
3 177 178 179
3 180 181 182
3 183 184 185
3 186 187 188
3 189 190 191
3 192 78 77
3 118 1 122
3 119 4 193
3 120 7 134
3 121 10 194
3 122 124 118
3 125 127 138
3 128 130 195
3 131 133 196
3 120 126 125
3 135 137 197
3 138 139 198
3 123 141 124
3 142 144 199
3 145 147 200
3 201 88 87
3 140 152 141
3 153 155 202
3 156 158 203
3 159 161 204
3 205 206 207
3 208 209 210
3 168 170 211
3 212 213 214
3 215 216 217
3 218 219 220
3 221 222 223
3 183 185 224
3 186 188 225
3 226 227 228
3 229 117 230
