ply
format ascii 1.0
comment Created by Blender 2.83.5 - www.blender.org, source file: ''
element vertex 396
property float x
property float y
property float z
property float nx
property float ny
property float nz
property float s
property float t
element face 500
property list uchar uint vertex_indices
end_header
0.014470 -0.286270 -0.011982 -0.315775 -0.002594 -0.948820 0.175435 0.163566
0.068009 -0.211070 -0.030025 -0.868557 0.469955 -0.157231 0.202202 0.288261
0.078922 -0.223780 -0.050511 -0.389569 -0.110813 -0.914274 0.150245 0.289632
0.079943 -0.211355 -0.007171 -0.353221 0.555498 0.752739 0.254160 0.285937
0.009018 -0.265881 0.005959 -0.427564 0.787957 -0.443007 0.227393 0.163566
0.021426 -0.262883 0.031293 0.074465 0.870754 0.485977 0.279351 0.163566
0.040805 -0.283131 0.037470 0.629627 0.108615 0.769250 0.331308 0.163566
0.046257 -0.303521 0.019529 0.727683 -0.669454 0.149266 0.383266 0.163566
0.104539 -0.219771 -0.003812 0.530564 0.038087 0.846767 0.306118 0.289632
0.100373 -0.237779 -0.044947 0.428358 -0.546861 -0.719321 0.410033 0.285937
0.114285 -0.234553 -0.023480 0.877987 -0.473037 0.073122 0.358075 0.288261
0.014470 -0.286270 -0.011982 -0.315775 -0.002594 -0.948820 0.487181 0.163566
0.033850 -0.306518 -0.005805 0.249947 -0.771233 -0.585406 0.435223 0.163566
0.113173 -0.120476 -0.076660 -0.438978 -0.232002 -0.868007 0.120830 0.437733
0.109916 -0.104571 -0.037390 -0.527635 0.519028 0.672445 0.224745 0.434466
0.133930 -0.107771 -0.032684 0.386059 0.298502 0.872829 0.276703 0.437733
0.145991 -0.121924 -0.049104 0.949950 -0.222694 0.218970 0.328660 0.435765
0.135283 -0.128833 -0.069565 0.566027 -0.487106 -0.665029 0.380618 0.434466
0.078922 -0.223780 -0.050511 -0.389569 -0.110813 -0.914274 0.461990 0.289632
0.141082 -0.029432 -0.116426 -0.954100 0.232124 -0.189215 0.144204 0.574706
0.099965 -0.109429 -0.058801 -0.938231 0.315134 -0.142674 0.172788 0.435765
0.151404 -0.016810 -0.101085 -0.480697 0.601428 0.638081 0.196162 0.579905
0.171943 -0.024894 -0.097139 0.546007 0.345988 0.762963 0.248120 0.576682
0.180992 -0.038951 -0.110233 0.962767 -0.221870 0.154302 0.300077 0.574706
0.151123 -0.040585 -0.131451 -0.487594 -0.352489 -0.798700 0.403993 0.576682
0.173280 -0.043934 -0.130652 0.510269 -0.575365 -0.639149 0.352035 0.579905
0.163028 0.056365 -0.172698 -0.982604 -0.137913 -0.124149 0.116520 0.717314
0.151123 -0.040585 -0.131451 -0.487594 -0.352489 -0.798700 0.092247 0.576682
0.189412 0.069037 -0.154445 0.371593 0.588153 0.718284 0.220436 0.714772
0.202998 0.062576 -0.167660 0.971435 0.194952 0.135166 0.272393 0.717314
0.196294 0.050369 -0.182447 0.696768 -0.395856 -0.598102 0.324351 0.716962
0.176829 0.046218 -0.183067 -0.263833 -0.556413 -0.787896 0.376309 0.714772
0.176829 0.046218 -0.183067 -0.263833 -0.556413 -0.787896 0.064563 0.714772
0.136097 0.131835 -0.246824 -0.928220 -0.307260 -0.209723 0.087492 0.861430
0.147342 0.128791 -0.259843 -0.327860 -0.453352 -0.828822 0.035535 0.861160
0.139892 0.143078 -0.232510 -0.711570 0.106479 0.694479 0.139450 0.865035
0.169762 0.068061 -0.157517 -0.574297 0.501633 0.646901 0.168478 0.716962
0.158333 0.144849 -0.230959 0.374371 0.483413 0.791284 0.191408 0.861160
0.169457 0.142241 -0.244176 0.959655 0.280984 0.006775 0.243365 0.861430
0.164048 0.136846 -0.261125 0.556017 -0.141789 -0.818964 0.295323 0.865035
0.129295 0.232046 -0.263869 -0.425459 -0.086306 -0.900815 0.010000 0.990000
0.119731 0.234570 -0.252466 -0.984252 -0.160222 -0.074435 0.061958 0.988661
0.139266 0.238967 -0.235759 0.223914 0.109226 0.968444 0.165873 0.990000
0.124314 0.239017 -0.238852 -0.643971 -0.054109 0.763085 0.113915 0.989790
0.148658 0.234076 -0.246519 0.948210 0.218574 0.230415 0.217831 0.988661
0.144220 0.231625 -0.260675 0.634510 0.139348 -0.760216 0.269788 0.989790
0.129295 0.232046 -0.263869 -0.425459 -0.086306 -0.900815 0.321746 0.990000
0.147342 0.128791 -0.259843 -0.327860 -0.453352 -0.828822 0.347280 0.861160
-0.069317 -0.296296 0.039876 -0.770043 -0.615864 -0.166417 0.227375 0.163655
-0.125830 -0.211300 0.055696 -0.467269 -0.017853 -0.883908 0.149675 0.290455
-0.061183 -0.277595 0.021165 -0.534440 0.100070 -0.839229 0.175418 0.163655
-0.127558 -0.223340 0.098230 -0.514237 -0.438093 0.737266 0.253590 0.288954
-0.140296 -0.220730 0.075539 -0.909879 -0.403333 -0.096866 0.201632 0.292434
-0.059198 -0.298194 0.066280 -0.366588 -0.702963 0.609424 0.279333 0.163655
-0.105130 -0.212031 0.103027 0.291177 -0.054598 0.955077 0.305548 0.290455
-0.039155 -0.278723 0.072714 0.223945 0.067049 0.972259 0.331290 0.163655
-0.092212 -0.199396 0.083910 0.893002 0.396588 0.212714 0.357505 0.292434
-0.102229 -0.202419 0.059941 0.428175 0.450270 -0.783502 0.409463 0.288954
-0.031021 -0.260022 0.054003 0.438337 0.826777 0.352489 0.383248 0.163655
-0.041140 -0.258124 0.027599 0.081973 0.807398 -0.584277 0.435206 0.163655
-0.061183 -0.277595 0.021165 -0.534440 0.100070 -0.839229 0.487163 0.163655
-0.159517 -0.102452 0.083853 -0.996216 0.019318 -0.084414 0.173259 0.433000
-0.150120 -0.103954 0.106005 -0.660146 -0.031068 0.750450 0.225217 0.432648
-0.125497 -0.099573 0.111209 0.324961 -0.039949 0.944853 0.277175 0.437702
-0.111557 -0.102749 0.090033 0.994568 0.032563 0.098849 0.329132 0.433000
-0.120954 -0.101891 0.067846 0.599658 0.067232 -0.797418 0.381090 0.432648
-0.125830 -0.211300 0.055696 -0.467269 -0.017853 -0.883908 0.461421 0.290455
-0.136449 0.004243 0.088066 -0.981750 0.044038 -0.184973 0.144368 0.572834
-0.145584 -0.097015 0.063137 -0.435926 0.077548 -0.896603 0.121302 0.437702
-0.131096 0.010457 0.109383 -0.611347 -0.002655 0.791345 0.196326 0.579962
-0.096399 0.003834 0.094713 0.982208 -0.012635 0.187201 0.300241 0.572834
-0.108816 0.006634 0.111638 0.448683 0.025849 0.893307 0.248283 0.576020
-0.123986 0.007286 0.071217 -0.353282 0.024232 -0.935179 0.404156 0.576020
-0.101647 0.010693 0.073568 0.695151 0.033296 -0.718040 0.352199 0.579962
-0.123986 0.007286 0.071217 -0.353282 0.024232 -0.935179 0.092410 0.576020
-0.153149 0.106252 0.084571 -0.946928 -0.139348 -0.289651 0.117582 0.713252
-0.138376 0.109946 0.070840 -0.200903 -0.016053 -0.979461 0.065625 0.709654
-0.127340 0.109662 0.108182 0.341960 0.080294 0.936247 0.221498 0.709654
-0.114892 0.119491 0.095185 0.968444 0.165807 0.185919 0.273455 0.713252
-0.138376 0.109946 0.070840 -0.200903 -0.016053 -0.979461 0.377370 0.709654
-0.120722 0.118189 0.075389 0.712516 0.138066 -0.687918 0.325413 0.711774
-0.138400 -0.113936 0.069800 -0.190161 -0.532731 -0.824610 0.521660 0.295987
-0.156651 -0.073572 0.071088 0.486312 0.680135 -0.548509 0.472124 0.333762
-0.125841 -0.087613 0.075305 0.405744 0.719993 -0.562975 0.464568 0.295987
-0.174827 -0.099685 0.092109 -0.559130 -0.633992 0.534227 0.586307 0.333762
-0.169007 -0.097026 0.065856 -0.198492 -0.561541 -0.803247 0.529215 0.333762
-0.144968 -0.116826 0.098600 -0.503128 -0.670278 0.545488 0.578752 0.295987
-0.162471 -0.076230 0.097341 0.080813 0.558184 0.825739 0.643398 0.333762
-0.125841 -0.087613 0.075305 0.405744 0.719993 -0.562975 0.692935 0.295987
-0.132410 -0.090503 0.104106 0.094668 0.582141 0.807520 0.635843 0.295987
-0.267445 0.004014 0.045923 -0.175176 -0.302408 -0.936918 0.560793 0.489959
-0.288790 0.038518 0.048913 0.391034 0.731925 -0.557939 0.512411 0.531188
-0.254549 0.020076 0.053454 0.616901 0.689779 -0.378918 0.503702 0.489940
-0.303101 0.016701 0.061399 -0.578539 -0.762383 0.289895 0.626594 0.531188
-0.303245 0.024925 0.042096 -0.456160 -0.198340 -0.867489 0.569502 0.534311
-0.293221 0.033653 0.068835 0.481918 0.174108 0.858699 0.683685 0.534311
-0.272158 -0.001854 0.066521 -0.634999 -0.611835 0.471541 0.617885 0.489940
-0.259290 0.014226 0.074052 0.255104 0.412732 0.874386 0.674977 0.489959
-0.254549 0.020076 0.053454 0.616901 0.689779 -0.378918 0.732068 0.489940
-0.333768 0.062921 0.073748 -0.649770 0.111850 -0.751823 0.578416 0.577857
-0.331216 0.049390 0.087930 -0.532456 -0.787255 0.310953 0.635508 0.576322
-0.316097 0.070450 0.078426 0.534745 0.770562 -0.346751 0.749691 0.576322
-0.288790 0.038518 0.048913 0.391034 0.731925 -0.557939 0.740777 0.531188
-0.127204 -0.208612 0.088534 -0.732963 0.406018 0.545762 0.452228 0.586489
-0.095215 -0.178184 0.071185 -0.293649 0.530625 -0.795099 0.412457 0.619443
-0.116460 -0.204688 0.058434 -0.260018 0.579852 -0.772088 0.405866 0.586489
-0.102976 -0.228956 0.094531 0.328898 -0.486923 0.809107 0.498591 0.586489
-0.104543 -0.181079 0.098575 -0.767235 0.340831 0.543260 0.458819 0.619443
-0.072768 -0.195787 0.076828 0.782434 -0.356853 -0.510300 0.551544 0.619443
-0.082096 -0.198682 0.104218 0.351421 -0.457747 0.816645 0.505182 0.619443
-0.092232 -0.225032 0.064431 0.799982 -0.314188 -0.511124 0.544953 0.586489
-0.095215 -0.178184 0.071185 -0.293649 0.530625 -0.795099 0.597907 0.619443
-0.045610 -0.141521 0.105656 -0.395795 0.770196 0.500107 0.472169 0.686190
-0.002496 -0.130934 0.112418 0.287240 0.627094 -0.724021 0.435897 0.733184
-0.036881 -0.142627 0.086471 0.186346 0.603626 -0.775170 0.425806 0.686190
-0.008872 -0.148864 0.132460 -0.191626 -0.680624 0.707083 0.528622 0.733184
-0.012584 -0.129184 0.129830 -0.671010 0.637715 0.378185 0.482260 0.736613
-0.030945 -0.162417 0.090785 0.577471 -0.621601 -0.529221 0.564894 0.686190
-0.039673 -0.161311 0.109970 0.005188 -0.621143 0.783654 0.518531 0.686190
-0.002496 -0.130934 0.112418 0.287240 0.627094 -0.724021 0.621347 0.733184
0.006621 -0.147476 0.119575 0.689718 -0.643605 -0.331675 0.574985 0.736613
0.021145 -0.113609 0.135249 0.082827 0.341685 -0.936125 0.444596 0.779163
0.009043 -0.112100 0.149734 -0.796319 0.505417 0.332194 0.490959 0.777583
0.030438 -0.126886 0.145044 0.788415 -0.614002 -0.037172 0.583684 0.777583
0.020422 -0.122683 0.160555 -0.001190 -0.353832 0.935301 0.537321 0.779163
0.021145 -0.113609 0.135249 0.082827 0.341685 -0.936125 0.630046 0.779163
0.029829 -0.077511 0.150316 -0.862758 0.384442 0.328318 0.500113 0.824583
0.044761 -0.082262 0.159017 0.349132 0.023621 0.936766 0.546476 0.823776
0.052623 -0.086576 0.143498 0.916623 -0.343669 -0.204077 0.592838 0.824583
0.037099 -0.083521 0.135075 -0.245491 -0.034028 -0.968780 0.639201 0.823776
0.037099 -0.083521 0.135075 -0.245491 -0.034028 -0.968780 0.453751 0.823776
0.038553 -0.036969 0.139598 -0.930479 0.142003 0.337596 0.510271 0.875009
0.044945 -0.035050 0.122681 -0.313761 -0.109928 -0.943083 0.463908 0.879329
0.060580 -0.039458 0.130856 0.919614 -0.120670 -0.373730 0.602996 0.875009
0.054667 -0.031786 0.146247 0.450331 0.131535 0.883084 0.556633 0.879329
0.044945 -0.035050 0.122681 -0.313761 -0.109928 -0.943083 0.649358 0.879329
0.036580 0.006869 0.136075 -0.938414 0.007294 0.345408 0.520698 0.924894
0.041630 0.013447 0.121231 -0.417585 0.081606 -0.904935 0.474336 0.930396
0.055810 0.006704 0.127756 0.894436 0.024903 -0.446425 0.613423 0.924894
-0.097648 -0.146742 0.121416 -0.918485 -0.370586 0.137761 0.471845 0.684572
-0.094567 -0.106546 0.150814 -0.390637 0.813929 -0.430006 0.435777 0.733512
-0.090749 -0.130159 0.110232 -0.449873 0.702902 -0.550920 0.425483 0.684572
-0.078103 -0.150547 0.128571 0.400128 -0.639576 0.656331 0.518207 0.684572
-0.101183 -0.123350 0.159355 -0.890988 -0.453902 0.007569 0.482139 0.735481
-0.071204 -0.133964 0.117387 0.865902 0.491684 -0.091708 0.564570 0.684572
-0.082200 -0.128110 0.163363 0.507065 -0.727683 0.461837 0.528502 0.733512
-0.094567 -0.106546 0.150814 -0.390637 0.813929 -0.430006 0.621227 0.733512
-0.076490 -0.109524 0.158780 0.852718 0.522355 -0.003693 0.574864 0.735481
-0.105998 -0.096901 0.187266 -0.326853 0.717643 -0.614887 0.444741 0.779574
-0.111676 -0.114011 0.192720 -0.774285 -0.630482 -0.054170 0.491103 0.778269
-0.090015 -0.099572 0.196867 0.848048 0.466140 0.251961 0.583828 0.778269
-0.097048 -0.115280 0.204518 0.332774 -0.672140 0.661367 0.537466 0.779574
-0.105998 -0.096901 0.187266 -0.326853 0.717643 -0.614887 0.630191 0.779574
-0.126112 -0.076784 0.206106 -0.281961 0.242347 -0.928281 0.453852 0.824765
-0.123637 -0.083491 0.230367 -0.006378 -0.320536 0.947203 0.546577 0.824765
-0.112883 -0.076160 0.218113 0.939207 0.300912 0.165227 0.592940 0.824696
-0.137918 -0.037076 0.219445 -0.981719 -0.190222 0.000122 0.510036 0.874687
-0.136818 -0.084256 0.218316 -0.927549 -0.359355 0.102390 0.500215 0.824696
-0.126278 -0.032870 0.231925 0.115024 -0.029115 0.992920 0.556398 0.876745
-0.114335 -0.031701 0.219083 0.973479 0.226691 -0.030244 0.602761 0.874687
-0.126997 -0.031399 0.206896 0.048830 0.106845 -0.993042 0.649123 0.876745
-0.126112 -0.076784 0.206106 -0.281961 0.242347 -0.928281 0.639302 0.824765
-0.126997 -0.031399 0.206896 0.048830 0.106845 -0.993042 0.463673 0.876745
-0.153199 0.001045 0.224464 -0.931669 -0.360454 0.044801 0.520388 0.922535
-0.147054 0.012997 0.212595 -0.093326 0.036927 -0.994934 0.474026 0.929901
-0.133957 0.008190 0.223859 0.925901 0.377697 -0.001221 0.613113 0.922535
-0.145831 0.011756 0.236812 0.017121 -0.039186 0.999084 0.566751 0.929901
0.185346 0.033382 -0.144849 0.646016 0.763268 0.005982 0.521713 0.023547
0.193385 0.005654 -0.181255 0.744896 -0.635273 0.203772 0.565551 0.063599
0.191770 0.028276 -0.184419 0.630909 0.775750 0.012513 0.513703 0.063599
0.162021 0.005206 -0.147001 -0.625355 -0.772423 -0.110569 0.625410 0.023547
0.187364 0.007688 -0.142218 0.756157 -0.636982 0.149815 0.573561 0.023547
0.160003 0.030903 -0.149632 -0.735343 0.628407 -0.253670 0.677258 0.023547
0.171140 0.003464 -0.186235 -0.641377 -0.759178 -0.110569 0.617399 0.063599
0.191770 0.028276 -0.184419 0.630909 0.775750 0.012513 0.721096 0.063599
0.169525 0.026086 -0.189400 -0.725913 0.623981 -0.289285 0.669248 0.063599
0.201335 0.021564 -0.222402 0.641835 0.761925 -0.086581 0.505604 0.101224
0.181548 -0.000526 -0.220580 -0.688345 -0.725303 0.008728 0.609301 0.101224
0.202706 0.000690 -0.218334 0.748283 -0.558397 0.358074 0.557452 0.103931
0.201335 0.021564 -0.222402 0.641835 0.761925 -0.086581 0.712997 0.101224
0.181506 0.018744 -0.229682 -0.660360 0.626942 -0.413312 0.661149 0.103931
0.210748 0.002402 -0.259237 0.677480 0.735252 0.020356 0.497455 0.144623
0.207022 -0.014206 -0.247920 0.555712 -0.693197 0.458907 0.549303 0.138767
0.190459 0.002211 -0.261706 -0.678762 0.535722 -0.502213 0.653000 0.138767
0.191425 -0.018170 -0.260520 -0.691122 -0.717643 -0.085421 0.601152 0.144623
0.210748 0.002402 -0.259237 0.677480 0.735252 0.020356 0.704849 0.144623
0.231526 -0.026203 -0.288747 0.496231 -0.744896 0.445906 0.540382 0.187948
0.217753 -0.008276 -0.302055 -0.568896 0.605213 -0.556810 0.644079 0.187948
0.218771 -0.027019 -0.302501 -0.504929 -0.735282 -0.452071 0.592230 0.189567
0.232698 -0.007568 -0.290712 0.566149 0.712363 0.414686 0.695927 0.189567
0.258723 -0.004706 -0.315377 0.235847 0.703299 0.670583 0.479241 0.230896
0.232698 -0.007568 -0.290712 0.566149 0.712363 0.414686 0.488534 0.189567
0.254536 -0.018978 -0.333302 -0.269143 -0.580554 -0.768395 0.582938 0.230896
0.268779 -0.020331 -0.320418 0.323710 -0.850765 0.413953 0.531090 0.238910
0.258723 -0.004706 -0.315377 0.235847 0.703299 0.670583 0.686635 0.230896
0.259198 -0.000315 -0.334117 -0.336833 0.700278 -0.629383 0.634786 0.238910
0.306784 0.005662 -0.321340 -0.048982 0.545732 0.836512 0.469084 0.283809
0.309562 -0.006901 -0.339087 0.093844 -0.615741 -0.782311 0.572781 0.283809
0.306784 0.005662 -0.321340 -0.048982 0.545732 0.836512 0.676477 0.283809
0.309916 0.010412 -0.337747 -0.205939 0.768975 -0.605152 0.624629 0.289510
-0.032405 -0.412688 -0.014516 -0.351207 0.094028 -0.931547 0.206149 0.010000
-0.058728 -0.308588 0.027325 -0.938200 -0.206732 -0.277444 0.241328 0.102556
-0.026626 -0.301628 -0.006616 -0.338847 0.177252 -0.923978 0.187637 0.102556
-0.068356 -0.411077 0.025837 -0.983062 0.105106 -0.150029 0.258644 0.010000
-0.039175 -0.308866 0.064180 -0.463210 -0.234870 0.854518 0.289964 0.102556
0.005855 -0.411768 0.085759 0.349223 0.106601 0.930937 0.361159 0.010000
-0.046040 -0.410722 0.074464 -0.617756 0.120090 0.777123 0.310384 0.010000
0.033472 -0.314403 0.038007 0.932035 -0.191900 0.307291 0.396386 0.102556
0.003619 -0.303133 0.073110 0.342082 0.184912 0.921262 0.342201 0.102556
0.022221 -0.413914 -0.009481 0.621204 0.080905 -0.779443 0.465546 0.010000
0.037396 -0.413319 0.042843 0.982757 0.047700 0.178564 0.412970 0.010000
-0.032405 -0.412688 -0.014516 -0.351207 0.094028 -0.931547 0.517894 0.010000
0.016876 -0.313314 -0.000344 0.384442 -0.358135 -0.850826 0.445489 0.102556
-0.015377 -0.262399 0.015384 -0.102542 0.865322 -0.490585 0.234079 0.130135
-0.002057 -0.263062 0.050495 0.257393 0.834986 0.486312 0.287171 0.124463
-0.026626 -0.301628 -0.006616 -0.338847 0.177252 -0.923978 0.499383 0.102556
-0.002057 -0.263062 0.050495 0.257393 0.834986 0.486312 0.390700 0.126395
-0.015377 -0.262399 0.015384 -0.102542 0.865322 -0.490585 0.442621 0.126578
-0.082184 -0.158605 0.077499 -0.277444 0.500870 -0.819819 0.417192 0.642528
-0.094208 -0.159988 0.107420 -0.945494 -0.149144 0.289407 0.465536 0.643919
-0.068061 -0.175703 0.109767 0.311472 -0.492599 0.812586 0.511448 0.642381
-0.055911 -0.176895 0.083417 0.601428 -0.575915 -0.553667 0.554412 0.643808
-0.082184 -0.158605 0.077499 -0.277444 0.500870 -0.819819 0.602642 0.642528
-0.065335 -0.144526 0.101213 0.305643 0.946928 0.099429 0.467727 0.663983
-0.036881 -0.142627 0.086471 0.186346 0.603626 -0.775170 0.611256 0.686190
0.042881 0.060016 0.142275 -0.776177 0.424940 0.465743 0.531276 0.982187
0.048531 0.065523 0.129923 -0.237709 0.753136 -0.613392 0.484913 0.986216
0.051045 0.012501 0.143013 0.371227 -0.048158 0.927274 0.567061 0.930396
0.061398 0.062751 0.134556 0.776452 0.610462 -0.156285 0.624001 0.985614
0.041630 0.013447 0.121231 -0.417585 0.081606 -0.904935 0.659786 0.930396
-0.065335 -0.144526 0.101213 0.305643 0.946928 0.099429 0.560168 0.662561
-0.090749 -0.130159 0.110232 -0.449873 0.702902 -0.550920 0.610932 0.684572
-0.168466 0.052080 0.226852 -0.986755 0.102451 0.125736 0.530881 0.979097
-0.158960 0.059229 0.235340 -0.118107 0.564959 0.816584 0.577243 0.982917
-0.151335 0.063622 0.224350 0.544298 0.836116 -0.067782 0.623606 0.984496
-0.147054 0.012997 0.212595 -0.093326 0.036927 -0.994934 0.659476 0.929901
-0.161865 0.059883 0.215939 -0.357341 0.572832 -0.737632 0.669968 0.983842
0.042881 0.060016 0.142275 -0.776177 0.424940 0.465743 0.170651 0.081439
0.052683 0.066055 0.139007 0.537095 0.835505 0.115879 0.170651 0.062277
0.048531 0.065523 0.129923 -0.237709 0.753136 -0.613392 0.189813 0.062277
0.055686 0.056719 0.146841 0.409009 0.247047 0.878445 0.151488 0.062277
0.061398 0.062751 0.134556 0.776452 0.610462 -0.156285 0.170651 0.043114
-0.168466 0.052080 0.226852 -0.986755 0.102451 0.125736 0.166540 0.017407
-0.160438 0.059642 0.225641 0.262062 0.964995 -0.006806 0.181276 0.024736
-0.161865 0.059883 0.215939 -0.357341 0.572832 -0.737632 0.173947 0.039471
-0.158960 0.059229 0.235340 -0.118107 0.564959 0.816584 0.188605 0.010000
-0.151335 0.063622 0.224350 0.544298 0.836116 -0.067782 0.196012 0.032065
-0.218386 -0.037748 0.078115 0.220801 0.428327 0.876217 0.658830 0.412179
-0.224582 -0.055425 0.049219 -0.270882 -0.440443 -0.855922 0.544646 0.412179
-0.206313 -0.041289 0.057174 0.618641 0.562334 -0.548662 0.715921 0.408093
-0.206313 -0.041289 0.057174 0.618641 0.562334 -0.548662 0.487555 0.408093
-0.231973 -0.057241 0.072433 -0.698935 -0.571612 0.429762 0.601738 0.408093
-0.156651 -0.073572 0.071088 0.486312 0.680135 -0.548509 0.700490 0.333762
0.373984 0.337646 -0.175778 0.880428 -0.073702 0.468368 0.088423 0.846225
0.231984 0.477590 -0.119385 0.159825 0.636464 0.754540 0.010000 0.846225
0.197543 0.275963 -0.086376 -0.014924 -0.386731 0.922056 0.049211 0.990000
0.274399 0.170677 -0.247423 0.375072 -0.921049 0.104770 0.166845 0.846225
0.197543 0.275963 -0.086376 -0.014924 -0.386731 0.922056 0.127634 0.990000
0.070853 0.207429 -0.235309 -0.657857 -0.734519 0.166234 0.245268 0.846225
0.197543 0.275963 -0.086376 -0.014924 -0.386731 0.922056 0.206057 0.990000
0.044639 0.397111 -0.156177 -0.790887 0.228034 0.567827 0.323691 0.846225
0.197543 0.275963 -0.086376 -0.014924 -0.386731 0.922056 0.284480 0.990000
0.231984 0.477590 -0.119385 0.159825 0.636464 0.754540 0.402114 0.846225
0.197543 0.275963 -0.086376 -0.014924 -0.386731 0.922056 0.362902 0.990000
0.330125 0.496913 -0.300833 0.657857 0.734519 -0.166234 0.049211 0.702450
0.356340 0.307231 -0.379964 0.790887 -0.228034 -0.567827 0.127634 0.702450
0.203435 0.428379 -0.449765 0.014924 0.386731 -0.922056 0.088423 0.558675
0.168994 0.226752 -0.416758 -0.159825 -0.636464 -0.754540 0.206057 0.702450
0.203435 0.428379 -0.449765 0.014924 0.386731 -0.922056 0.166845 0.558675
0.026995 0.366696 -0.360365 -0.880428 0.073702 -0.468368 0.284480 0.702450
0.203435 0.428379 -0.449765 0.014924 0.386731 -0.922056 0.245268 0.558675
0.126579 0.533665 -0.288719 -0.375072 0.921049 -0.104770 0.362902 0.702450
0.203435 0.428379 -0.449765 0.014924 0.386731 -0.922056 0.323691 0.558675
0.330125 0.496913 -0.300833 0.657857 0.734519 -0.166234 0.441325 0.702450
0.203435 0.428379 -0.449765 0.014924 0.386731 -0.922056 0.402114 0.558675
-0.302786 0.382226 0.238963 -0.602527 0.440168 0.665700 0.109188 0.373689
-0.044090 0.365445 0.277258 0.435438 0.372845 0.819361 0.059594 0.555533
-0.138829 0.520866 0.088737 0.055300 0.996460 0.062929 0.010000 0.373689
-0.192140 0.149402 0.286111 -0.158574 -0.493973 0.854854 0.208375 0.373689
-0.044090 0.365445 0.277258 0.435438 0.372845 0.819361 0.158782 0.555533
0.040200 0.144151 0.165023 0.773644 -0.515030 0.368999 0.307564 0.373689
-0.044090 0.365445 0.277258 0.435438 0.372845 0.819361 0.257969 0.555533
0.073148 0.373730 0.043039 0.905850 0.406110 -0.120396 0.406751 0.373689
-0.044090 0.365445 0.277258 0.435438 0.372845 0.819361 0.357157 0.555533
-0.138829 0.520866 0.088737 0.055300 0.996460 0.062929 0.505939 0.373689
-0.044090 0.365445 0.277258 0.435438 0.372845 0.819361 0.456345 0.555533
-0.345431 0.400882 -0.018923 -0.773644 0.515030 -0.369030 0.059594 0.191844
-0.261142 0.179588 -0.131157 -0.435438 -0.372845 -0.819361 0.109188 0.010000
-0.378379 0.171303 0.103061 -0.905850 -0.406110 0.120396 0.158782 0.191844
-0.261142 0.179588 -0.131157 -0.435438 -0.372845 -0.819361 0.208375 0.010000
-0.166403 0.024167 0.057363 -0.055300 -0.996460 -0.062929 0.257969 0.191844
-0.261142 0.179588 -0.131157 -0.435438 -0.372845 -0.819361 0.307564 0.010000
-0.002445 0.162811 -0.092863 0.602527 -0.440168 -0.665700 0.357157 0.191844
-0.261142 0.179588 -0.131157 -0.435438 -0.372845 -0.819361 0.406751 0.010000
-0.113091 0.395631 -0.140010 0.158574 0.493973 -0.854854 0.456345 0.191844
-0.261142 0.179588 -0.131157 -0.435438 -0.372845 -0.819361 0.505939 0.010000
-0.345431 0.400882 -0.018923 -0.773644 0.515030 -0.369030 0.555533 0.191844
-0.444091 0.211228 0.270412 -0.512223 0.396008 0.762078 0.464198 0.872173
-0.401941 0.301888 0.136149 -0.247475 0.965453 -0.081210 0.400837 0.872173
-0.516196 0.180306 0.122537 -0.965117 0.201788 -0.166723 0.432518 0.988334
-0.468507 0.053291 0.220595 -0.665578 -0.595996 0.449171 0.527559 0.872173
-0.516196 0.180306 0.122537 -0.965117 0.201788 -0.166723 0.495878 0.988334
-0.441446 0.046340 0.055543 -0.495590 -0.639668 -0.587512 0.590920 0.872173
-0.516196 0.180306 0.122537 -0.965117 0.201788 -0.166723 0.559239 0.988334
-0.400305 0.199982 0.003353 -0.237190 0.325388 -0.915342 0.654281 0.872173
-0.516196 0.180306 0.122537 -0.965117 0.201788 -0.166723 0.622601 0.988334
-0.401941 0.301888 0.136149 -0.247475 0.965453 -0.081210 0.717642 0.872173
-0.516196 0.180306 0.122537 -0.965117 0.201788 -0.166723 0.685962 0.988334
-0.283636 0.250018 0.242620 0.495590 0.639668 0.587512 0.432518 0.756011
-0.324776 0.096376 0.294810 0.237190 -0.325388 0.915342 0.495878 0.756011
-0.208886 0.116052 0.175627 0.965117 -0.201788 0.166723 0.464198 0.639849
-0.323142 -0.005531 0.162014 0.247444 -0.965484 0.081210 0.559239 0.756011
-0.208886 0.116052 0.175627 0.965117 -0.201788 0.166723 0.527559 0.639849
-0.280991 0.085129 0.027752 0.512223 -0.396008 -0.762078 0.622601 0.756011
-0.208886 0.116052 0.175627 0.965117 -0.201788 0.166723 0.590920 0.639849
-0.256576 0.243066 0.077569 0.665578 0.595996 -0.449171 0.685962 0.756011
-0.208886 0.116052 0.175627 0.965117 -0.201788 0.166723 0.654281 0.639849
-0.283636 0.250018 0.242620 0.495590 0.639668 0.587512 0.749323 0.756011
-0.208886 0.116052 0.175627 0.965117 -0.201788 0.166723 0.717642 0.639849
-0.012720 0.090001 0.074906 -0.696036 0.222663 -0.682577 0.748090 0.583761
0.049318 0.158850 0.110594 -0.039216 0.951628 -0.304727 0.710500 0.583761
0.083816 0.086593 0.051844 0.325999 0.186590 -0.926756 0.729295 0.652675
0.035127 0.002979 0.074216 -0.189459 -0.698660 -0.689871 0.785679 0.583761
0.083816 0.086593 0.051844 0.325999 0.186590 -0.926756 0.766884 0.652675
0.126736 0.018045 0.109477 0.780419 -0.539140 -0.316538 0.823268 0.583761
0.083816 0.086593 0.051844 0.325999 0.186590 -0.926756 0.804473 0.652675
0.135507 0.114380 0.131960 0.873287 0.480789 -0.078494 0.860858 0.583761
0.083816 0.086593 0.051844 0.325999 0.186590 -0.926756 0.842063 0.652675
0.049318 0.158850 0.110594 -0.039216 0.951628 -0.304727 0.898447 0.583761
0.083816 0.086593 0.051844 0.325999 0.186590 -0.926756 0.879652 0.652675
-0.020691 0.119893 0.169276 -0.780419 0.539140 0.316538 0.729295 0.514847
-0.029462 0.023557 0.146793 -0.873287 -0.480789 0.078494 0.766884 0.514847
0.022229 0.051344 0.226908 -0.325999 -0.186590 0.926756 0.748090 0.445934
0.056727 -0.020913 0.168158 0.039216 -0.951628 0.304727 0.804473 0.514847
0.022229 0.051344 0.226908 -0.325999 -0.186590 0.926756 0.785679 0.445934
0.118765 0.047937 0.203846 0.696036 -0.222663 0.682577 0.842063 0.514847
0.022229 0.051344 0.226908 -0.325999 -0.186590 0.926756 0.823268 0.445934
0.070918 0.134958 0.204537 0.189459 0.698660 0.689871 0.879652 0.514847
0.022229 0.051344 0.226908 -0.325999 -0.186590 0.926756 0.860858 0.445934
-0.020691 0.119893 0.169276 -0.780419 0.539140 0.316538 0.917241 0.514847
0.022229 0.051344 0.226908 -0.325999 -0.186590 0.926756 0.898447 0.445934
0.483793 0.018746 -0.359129 0.977111 -0.059877 -0.204077 0.588077 0.268129
0.399801 -0.054066 -0.417032 0.272469 -0.670705 -0.689810 0.564357 0.355103
0.402514 0.069087 -0.440181 0.295236 0.362377 -0.883999 0.540636 0.268129
0.424185 -0.071137 -0.295280 0.477035 -0.813929 0.331523 0.635517 0.268129
0.399801 -0.054066 -0.417032 0.272469 -0.670705 -0.689810 0.611797 0.355103
0.306062 -0.076352 -0.336868 -0.513871 -0.857662 -0.017335 0.682958 0.268129
0.399801 -0.054066 -0.417032 0.272469 -0.670705 -0.689810 0.659238 0.355103
0.292670 0.010309 -0.426424 -0.626209 -0.130680 -0.768578 0.730399 0.268129
0.399801 -0.054066 -0.417032 0.272469 -0.670705 -0.689810 0.706678 0.355103
0.402514 0.069087 -0.440181 0.295236 0.362377 -0.883999 0.777839 0.268129
0.399801 -0.054066 -0.417032 0.272469 -0.670705 -0.689810 0.754119 0.355103
0.428574 0.128126 -0.332736 0.513871 0.857662 0.017335 0.564357 0.181155
0.334837 0.105841 -0.252572 -0.272469 0.670705 0.689810 0.588077 0.094180
0.441969 0.041462 -0.243182 0.626209 0.130650 0.768578 0.611797 0.181155
0.334837 0.105841 -0.252572 -0.272469 0.670705 0.689810 0.635517 0.094180
0.332123 -0.017311 -0.229424 -0.295236 -0.362377 0.883999 0.659238 0.181155
0.334837 0.105841 -0.252572 -0.272469 0.670705 0.689810 0.682958 0.094180
0.250844 0.033026 -0.310474 -0.977111 0.059877 0.204077 0.706678 0.181155
0.334837 0.105841 -0.252572 -0.272469 0.670705 0.689810 0.730399 0.094180
0.310454 0.122913 -0.374324 -0.477035 0.813929 -0.331523 0.754119 0.181155
0.334837 0.105841 -0.252572 -0.272469 0.670705 0.689810 0.777839 0.094180
0.428574 0.128126 -0.332736 0.513871 0.857662 0.017335 0.801559 0.181155
0.057962 0.377422 -0.130831 0.234169 -0.250435 -0.939360 0.515525 0.543765
0.148943 0.422640 -0.046202 0.957640 0.109104 -0.266396 0.465475 0.543765
0.095069 0.303292 -0.027813 0.529252 -0.839900 -0.120182 0.490500 0.635522
-0.032585 0.310447 -0.061546 -0.485794 -0.782983 -0.388409 0.565574 0.543765
0.095069 0.303292 -0.027813 0.529252 -0.839900 -0.120182 0.540550 0.635522
0.002435 0.314277 0.065905 -0.207312 -0.752556 0.625019 0.615624 0.543765
0.095069 0.303292 -0.027813 0.529252 -0.839900 -0.120182 0.590599 0.635522
0.114626 0.383617 0.075388 0.684744 -0.201178 0.700430 0.665673 0.543765
0.095069 0.303292 -0.027813 0.529252 -0.839900 -0.120182 0.640649 0.635522
0.148943 0.422640 -0.046202 0.957640 0.109104 -0.266396 0.715723 0.543765
0.095069 0.303292 -0.027813 0.529252 -0.839900 -0.120182 0.690698 0.635522
0.054584 0.503559 -0.091300 0.207312 0.752556 -0.625019 0.490500 0.452007
-0.057606 0.434218 -0.100783 -0.684774 0.201178 -0.700430 0.540550 0.452007
-0.038050 0.514539 0.002418 -0.529252 0.839869 0.120182 0.515525 0.360250
-0.091924 0.395191 0.020807 -0.957640 -0.109134 0.266396 0.590599 0.452007
-0.038050 0.514539 0.002418 -0.529252 0.839869 0.120182 0.565574 0.360250
-0.000943 0.440413 0.105437 -0.234169 0.250435 0.939360 0.640649 0.452007
-0.038050 0.514539 0.002418 -0.529252 0.839869 0.120182 0.615624 0.360250
0.089604 0.507388 0.036151 0.485794 0.783013 0.388409 0.690698 0.452007
-0.038050 0.514539 0.002418 -0.529252 0.839869 0.120182 0.665673 0.360250
0.054584 0.503559 -0.091300 0.207312 0.752556 -0.625019 0.740748 0.452007
-0.038050 0.514539 0.002418 -0.529252 0.839869 0.120182 0.715723 0.360250
0.113173 -0.120476 -0.076660 -0.438978 -0.232002 -0.868007 0.432576 0.437733
-0.145584 -0.097015 0.063137 -0.435926 0.077548 -0.896603 0.433048 0.437702
-0.146364 0.105034 0.104065 -0.676199 -0.067904 0.733573 0.169540 0.711774
-0.316097 0.070450 0.078426 0.534745 0.770562 -0.346751 0.521325 0.576322
-0.314958 0.058679 0.094269 0.662404 -0.166845 0.730308 0.692599 0.577857
-0.116460 -0.204688 0.058434 -0.260018 0.579852 -0.772088 0.591316 0.586489
0.185346 0.033382 -0.144849 0.646016 0.763268 0.005982 0.729106 0.023547
0.317273 -0.008001 -0.323565 0.236183 -0.781549 0.577349 0.520932 0.289510
0.055686 0.056719 0.146841 0.409009 0.247047 0.878445 0.577638 0.981110
0.048531 0.065523 0.129923 -0.237709 0.753136 -0.613392 0.670363 0.986216
-0.161865 0.059883 0.215939 -0.357341 0.572832 -0.737632 0.484518 0.983842
3 0 1 2
3 3 4 5
3 6 3 5
3 7 8 6
3 7 9 10
3 11 9 12
3 1 13 2
3 14 1 3
3 15 3 8
3 8 16 15
3 10 17 16
3 18 17 9
3 19 13 20
3 14 19 20
3 15 21 14
3 16 22 15
3 17 23 16
3 17 24 25
3 26 27 19
3 21 26 19
3 28 21 22
3 29 22 23
3 23 30 29
3 25 31 30
3 32 33 34
3 35 26 36
3 37 36 28
3 29 37 28
3 30 38 29
3 31 39 30
3 33 40 34
3 35 41 33
3 35 42 43
3 37 44 42
3 45 38 39
3 46 39 47
3 48 49 50
3 48 51 52
3 53 54 51
3 55 56 54
3 57 58 59
3 60 57 59
3 61 49 52
3 62 52 51
3 62 54 63
3 63 56 64
3 65 56 57
3 66 65 57
3 67 68 61
3 62 67 61
3 63 69 62
3 63 70 71
3 65 70 64
3 65 72 73
3 74 75 76
3 69 75 67
3 77 69 71
3 77 70 78
3 73 78 70
3 73 79 80
3 81 82 83
3 81 84 85
3 86 87 84
3 88 87 89
3 90 91 92
3 90 93 94
3 95 96 97
3 98 95 97
3 99 91 94
3 93 99 94
3 95 100 93
3 101 95 102
3 103 104 105
3 106 107 103
3 106 108 109
3 110 111 108
3 112 113 114
3 112 115 116
3 117 115 118
3 117 119 120
3 116 121 113
3 115 122 116
3 115 123 124
3 120 125 123
3 126 121 122
3 126 124 127
3 127 123 128
3 128 125 129
3 130 131 132
3 127 131 126
3 127 133 134
3 133 129 135
3 132 136 137
3 134 136 131
3 138 134 133
3 135 138 133
3 139 140 141
3 142 143 139
3 144 145 142
3 144 146 147
3 143 148 140
3 145 149 143
3 145 150 151
3 147 152 150
3 149 153 148
3 154 149 151
3 151 155 154
3 152 155 150
3 156 153 157
3 156 154 158
3 158 155 159
3 160 155 161
3 162 163 164
3 158 163 156
3 158 165 166
3 160 165 159
3 167 168 169
3 170 168 171
3 172 173 170
3 172 174 175
3 168 176 169
3 168 177 178
3 175 177 173
3 175 179 180
3 178 181 176
3 177 182 178
3 177 183 184
3 185 180 179
3 186 181 182
3 184 186 182
3 184 187 188
3 187 185 189
3 186 190 191
3 186 192 193
3 187 192 188
3 187 194 195
3 193 196 190
3 197 193 192
3 195 197 192
3 195 198 199
3 200 201 202
3 203 204 201
3 205 204 206
3 205 207 208
3 209 207 210
3 211 212 209
3 202 4 0
3 5 213 214
3 6 214 208
3 207 6 208
3 212 7 207
3 11 212 215
3 201 50 202
3 204 48 201
3 55 204 208
3 216 55 208
3 217 58 216
3 60 217 215
3 218 107 219
3 220 107 109
3 220 108 221
3 108 222 221
3 114 223 112
3 118 223 220
3 221 118 220
3 224 221 222
3 137 225 226
3 227 225 136
3 228 227 138
3 229 228 138
3 219 141 218
3 142 219 220
3 230 142 220
3 231 230 222
3 232 164 163
3 232 166 233
3 234 166 165
3 234 235 236
3 237 238 239
3 240 241 239
3 240 239 238
3 242 243 244
3 245 246 244
3 245 244 243
3 96 247 97
3 248 96 90
3 98 247 249
3 90 250 248
3 87 251 84
3 251 85 84
3 249 87 252
3 85 250 82
3 253 254 255
3 256 253 257
3 258 256 259
3 260 258 261
3 262 260 263
3 264 265 266
3 265 267 268
3 267 269 270
3 269 271 272
3 271 273 274
3 253 264 254
3 256 265 253
3 258 267 256
3 260 269 258
3 262 271 260
3 264 253 265
3 265 256 267
3 267 258 269
3 269 260 271
3 271 262 273
3 275 276 277
3 278 279 275
3 280 281 278
3 282 283 280
3 284 285 282
3 286 287 288
3 288 289 290
3 290 291 292
3 292 293 294
3 294 295 296
3 275 277 286
3 278 275 288
3 280 278 290
3 282 280 292
3 284 282 294
3 286 288 275
3 288 290 278
3 290 292 280
3 292 294 282
3 294 296 284
3 297 298 299
3 300 297 301
3 302 300 303
3 304 302 305
3 306 304 307
3 308 309 310
3 309 311 312
3 311 313 314
3 313 315 316
3 315 317 318
3 297 308 298
3 300 309 297
3 302 311 300
3 304 313 302
3 306 315 304
3 308 297 309
3 309 300 311
3 311 302 313
3 313 304 315
3 315 306 317
3 319 320 321
3 322 319 323
3 324 322 325
3 326 324 327
3 328 326 329
3 330 331 332
3 331 333 334
3 333 335 336
3 335 337 338
3 337 339 340
3 319 330 320
3 322 331 319
3 324 333 322
3 326 335 324
3 328 337 326
3 330 319 331
3 331 322 333
3 333 324 335
3 335 326 337
3 337 328 339
3 341 342 343
3 344 345 341
3 346 347 344
3 348 349 346
3 350 351 348
3 352 353 354
3 354 355 356
3 356 357 358
3 358 359 360
3 360 361 362
3 341 343 352
3 344 341 354
3 346 344 356
3 348 346 358
3 350 348 360
3 352 354 341
3 354 356 344
3 356 358 346
3 358 360 348
3 360 362 350
3 363 364 365
3 366 363 367
3 368 366 369
3 370 368 371
3 372 370 373
3 374 375 376
3 375 377 378
3 377 379 380
3 379 381 382
3 381 383 384
3 363 374 364
3 366 375 363
3 368 377 366
3 370 379 368
3 372 381 370
3 374 363 375
3 375 366 377
3 377 368 379
3 379 370 381
3 381 372 383
3 0 4 1
3 3 1 4
3 6 8 3
3 7 10 8
3 7 12 9
3 11 18 9
3 1 20 13
3 14 20 1
3 15 14 3
3 8 10 16
3 10 9 17
3 18 385 17
3 19 27 13
3 14 21 19
3 15 22 21
3 16 23 22
3 17 25 23
3 17 385 24
3 26 32 27
3 21 36 26
3 28 36 21
3 29 28 22
3 23 25 30
3 25 24 31
3 32 26 33
3 35 33 26
3 37 35 36
3 29 38 37
3 30 39 38
3 31 47 39
3 33 41 40
3 35 43 41
3 35 37 42
3 37 38 44
3 45 44 38
3 46 45 39
3 48 52 49
3 48 53 51
3 53 55 54
3 55 58 56
3 57 56 58
3 60 66 57
3 61 68 49
3 62 61 52
3 62 51 54
3 63 54 56
3 65 64 56
3 66 386 65
3 67 74 68
3 62 69 67
3 63 71 69
3 63 64 70
3 65 73 70
3 65 386 72
3 74 67 75
3 69 387 75
3 77 387 69
3 77 71 70
3 73 80 78
3 73 72 79
3 81 85 82
3 81 86 84
3 86 89 87
3 88 252 87
3 90 94 91
3 90 96 93
3 95 93 96
3 98 102 95
3 99 388 91
3 93 100 99
3 95 389 100
3 101 389 95
3 103 107 104
3 106 109 107
3 106 110 108
3 110 390 111
3 112 116 113
3 112 118 115
3 117 120 115
3 117 224 119
3 116 122 121
3 115 124 122
3 115 120 123
3 120 119 125
3 126 130 121
3 126 122 124
3 127 124 123
3 128 123 125
3 130 126 131
3 127 134 131
3 127 128 133
3 133 128 129
3 132 131 136
3 134 227 136
3 138 227 134
3 135 229 138
3 139 143 140
3 142 145 143
3 144 147 145
3 144 231 146
3 143 149 148
3 145 151 149
3 145 147 150
3 147 146 152
3 149 157 153
3 154 157 149
3 151 150 155
3 152 161 155
3 156 162 153
3 156 157 154
3 158 154 155
3 160 159 155
3 162 156 163
3 158 166 163
3 158 159 165
3 160 235 165
3 167 171 168
3 170 173 168
3 172 175 173
3 172 391 174
3 168 178 176
3 168 173 177
3 175 180 177
3 175 174 179
3 178 182 181
3 177 184 182
3 177 180 183
3 185 183 180
3 186 191 181
3 184 188 186
3 184 183 187
3 187 183 185
3 186 193 190
3 186 188 192
3 187 195 192
3 187 189 194
3 193 392 196
3 197 392 193
3 195 199 197
3 195 194 198
3 200 203 201
3 203 206 204
3 205 208 204
3 205 210 207
3 209 212 207
3 211 215 212
3 202 213 4
3 5 4 213
3 6 5 214
3 207 7 6
3 212 12 7
3 11 12 212
3 201 48 50
3 204 53 48
3 55 53 204
3 216 58 55
3 217 59 58
3 60 59 217
3 218 104 107
3 220 219 107
3 220 109 108
3 108 111 222
3 114 218 223
3 118 112 223
3 221 117 118
3 224 117 221
3 137 136 225
3 227 393 225
3 228 393 227
3 229 394 228
3 219 139 141
3 142 139 219
3 230 144 142
3 231 144 230
3 232 395 164
3 232 163 166
3 234 233 166
3 234 165 235
3 237 240 238
3 242 245 243
3 96 251 247
3 248 251 96
3 98 97 247
3 90 92 250
3 87 247 251
3 251 248 85
3 249 247 87
3 85 248 250
